<svg width="22" height="22" viewBox="0 0 22 22" fill="none" xmlns="http://www.w3.org/2000/svg">
<path d="M9.25 18.65V2.85C9.25 1.35 8.61 0.75 7.02 0.75H2.98C1.39 0.75 0.75 1.35 0.75 2.85V18.65C0.75 20.15 1.39 20.75 2.98 20.75H7.02C8.61 20.75 9.25 20.15 9.25 18.65Z" stroke="#B4B4B4" stroke-width="1.5" stroke-linecap="round" stroke-linejoin="round"/>
<path d="M20.75 7.27V2.73C20.75 1.32 20.11 0.75 18.52 0.75H14.48C12.89 0.75 12.25 1.32 12.25 2.73V7.26C12.25 8.68 12.89 9.24 14.48 9.24H18.52C20.11 9.25 20.75 8.68 20.75 7.27Z" stroke="#B4B4B4" stroke-width="1.5" stroke-linecap="round" stroke-linejoin="round"/>
<path d="M20.75 18.52V14.48C20.75 12.89 20.11 12.25 18.52 12.25H14.48C12.89 12.25 12.25 12.89 12.25 14.48V18.52C12.25 20.11 12.89 20.75 14.48 20.75H18.52C20.11 20.75 20.75 20.11 20.75 18.52Z" stroke="#B4B4B4" stroke-width="1.5" stroke-linecap="round" stroke-linejoin="round"/>
</svg>
