<svg width="24" height="34" viewBox="0 0 24 34" fill="none" xmlns="http://www.w3.org/2000/svg">
<path d="M11.9844 15.2406C11.826 15.2248 11.6359 15.2248 11.4616 15.2406C7.69103 15.1139 4.69678 12.0246 4.69678 8.22234C4.69678 4.34091 7.83361 1.18823 11.731 1.18823C15.6124 1.18823 18.7651 4.34091 18.7651 8.22234C18.7492 12.0246 15.755 15.1139 11.9844 15.2406Z" stroke="#F8FDFF" stroke-width="2.37639" stroke-linecap="round" stroke-linejoin="round"/>
<path d="M4.06342 21.0865C0.229511 23.653 0.229511 27.8354 4.06342 30.3861C8.42013 33.3011 15.5651 33.3011 19.9218 30.3861C23.7557 27.8196 23.7557 23.6372 19.9218 21.0865C15.581 18.1873 8.43598 18.1873 4.06342 21.0865Z" stroke="#F8FDFF" stroke-width="2.37639" stroke-linecap="round" stroke-linejoin="round"/>
</svg>
