<svg width="9" height="9" viewBox="0 0 9 9" fill="none" xmlns="http://www.w3.org/2000/svg">
<path d="M4.52307 9C3.69231 9 2.93846 8.8 2.26154 8.4C1.58462 8 1.03077 7.46153 0.6 6.78461C0.2 6.07692 0 5.30769 0 4.47692C0 3.64615 0.2 2.8923 0.6 2.21538C1.03077 1.53846 1.58462 1 2.26154 0.6C2.93846 0.200001 3.69231 0 4.52307 0C5.38461 0 6.13846 0.200001 6.78461 0.6C7.46153 1 8 1.53846 8.4 2.21538C8.8 2.8923 9 3.64615 9 4.47692C9 5.33846 8.8 6.10769 8.4 6.78461C8 7.46153 7.46153 8 6.78461 8.4C6.13846 8.8 5.38461 9 4.52307 9Z" fill="#001F00"/>
</svg>
