<svg width="24" height="24" viewBox="0 0 24 24" fill="none" xmlns="http://www.w3.org/2000/svg">
<mask id="mask0_131_143" style="mask-type:luminance" maskUnits="userSpaceOnUse" x="0" y="0" width="24" height="24">
<path d="M23.5 0.5V23.5H0.5V0.5H23.5Z" fill="white" stroke="white"/>
</mask>
<g mask="url(#mask0_131_143)">
<path d="M11.9902 2.25H12C15.3659 2.25 19.1466 4.22162 20.1328 8.56055C21.2411 13.4486 18.2564 17.6357 15.4238 20.3594L15.4219 20.3613C14.4688 21.2872 13.235 21.75 12 21.75C10.7655 21.75 9.53052 21.2871 8.56641 20.3594C5.82271 17.7211 2.93571 13.6998 3.76562 9.00684L3.85742 8.55078C4.84332 4.21281 8.63292 2.25 11.9902 2.25ZM12 6.66016C9.98405 6.66021 8.34984 8.29366 8.34961 10.3096C8.34961 12.3257 9.9839 13.9599 12 13.96C14.0161 13.96 15.6504 12.3257 15.6504 10.3096C15.6502 8.29363 14.016 6.66016 12 6.66016Z" stroke="#F8FDFF"/>
</g>
</svg>
