<svg width="22" height="22" viewBox="0 0 22 22" fill="none" xmlns="http://www.w3.org/2000/svg">
<path d="M10.75 16.6302C10.5 16.6302 10.24 16.5402 10.04 16.3602L7.45995 14.1002C6.48995 13.2502 6.35995 11.7902 7.16995 10.7802C7.98995 9.76024 9.45 9.57024 10.5 10.3602L10.75 10.5502L11.01 10.3502C12.06 9.56024 13.52 9.75024 14.34 10.7702C15.15 11.7802 15.02 13.2402 14.05 14.0902L11.47 16.3502C11.26 16.5402 11 16.6302 10.75 16.6302ZM8.43995 12.9702L10.75 14.9902L13.06 12.9702C13.43 12.6502 13.48 12.1002 13.17 11.7202C12.86 11.3302 12.31 11.2602 11.91 11.5602L11.2 12.0902C10.93 12.2902 10.57 12.2902 10.3 12.0902L9.59 11.5602C9.2 11.2602 8.63995 11.3302 8.32995 11.7202C8.02995 12.1002 8.07995 12.6502 8.43995 12.9702Z" fill="#F8FDFF"/>
<path d="M15.75 21.5H5.75C1.34 21.5 0 20.16 0 15.75V5.75C0 1.34 1.34 0 5.75 0H7.25C9 0 9.55 0.57 10.25 1.5L11.75 3.5C12.08 3.94 12.13 4 12.75 4H15.75C20.16 4 21.5 5.34 21.5 9.75V15.75C21.5 20.16 20.16 21.5 15.75 21.5ZM5.75 1.5C2.17 1.5 1.5 2.18 1.5 5.75V15.75C1.5 19.32 2.17 20 5.75 20H15.75C19.33 20 20 19.32 20 15.75V9.75C20 6.18 19.33 5.5 15.75 5.5H12.75C11.47 5.5 11.05 5.06 10.55 4.4L9.05 2.4C8.53 1.71 8.37 1.5 7.25 1.5H5.75Z" fill="#F8FDFF"/>
</svg>
